Results
version=1
nRows=26
nColumns=24
inDegrees=yes
endheader
time	pelvis_tilt	pelvis_list	pelvis_rotation	pelvis_tx	pelvis_ty	pelvis_tz	hip_flexion_r	hip_adduction_r	hip_rotation_r	knee_angle_r	ankle_angle_r	subtalar_angle_r	mtp_angle_r	hip_flexion_l	hip_adduction_l	hip_rotation_l	knee_angle_l	ankle_angle_l	subtalar_angle_l	mtp_angle_l	lumbar_extension	lumbar_bending	lumbar_rotation
      0.92050000	     -8.79592665	      2.09628888	     -0.31430704	     -0.15671514	      1.03832696	      0.30484676	      0.27498555	     -0.56067742	     -0.32766546	    -14.11839615	     19.05867176	     -3.44015173	      5.98444178	     34.95767199	     -0.46339921	      0.59981237	    -16.34747541	      4.81121026	      1.51464321	      7.01986349	     -6.12784643	      0.38152027	      3.86692954
      0.92466667	     -8.82269324	      2.01207463	     -0.38776335	     -0.15079058	      1.03687454	      0.30437527	      0.07009028	     -0.51494398	     -0.37698199	    -14.38694535	     19.33681797	     -3.24089784	      5.89014799	     34.96694614	     -0.50646684	      0.79863666	    -15.91733128	      4.78996235	      1.27730129	      6.97854859	     -6.03690333	      0.45925713	      3.90295098
      0.92883333	     -8.83087946	      1.92267393	     -0.46321499	     -0.14483309	      1.03547571	      0.30389779	     -0.14736181	     -0.46474165	     -0.41704925	    -14.67347743	     19.60241814	     -3.06566850	      5.80346928	     34.96511405	     -0.55346218	      0.95589507	    -15.59885235	      4.79798469	      1.07718254	      6.93257722	     -5.96636382	      0.55721946	      3.94732443
      0.93300000	     -8.85375447	      1.84212842	     -0.54249175	     -0.13883403	      1.03405974	      0.30342883	     -0.33247735	     -0.42688089	     -0.45649682	    -15.00162627	     19.86372650	     -2.87636773	      5.72955274	     34.98093021	     -0.59203537	      1.08159972	    -15.37910148	      4.80970344	      0.90031144	      6.88476479	     -5.86849064	      0.64109700	      3.98739211
      0.93716667	     -8.84368539	      1.76439404	     -0.62715830	     -0.13281695	      1.03272719	      0.30299917	     -0.55222419	     -0.38457660	     -0.41416968	    -15.33378954	     20.07403606	     -2.82586326	      5.71495727	     34.97488994	     -0.63334124	      1.14801030	    -15.28085582	      4.85955282	      0.83499200	      6.87060412	     -5.81532958	      0.72051181	      4.00776196
      0.94133333	     -8.82372688	      1.72070699	     -0.70972775	     -0.12674751	      1.03143216	      0.30250344	     -0.73933060	     -0.40517153	     -0.54248364	    -15.76437422	     20.34542346	     -2.45567096	      5.67746405	     34.93329323	     -0.62607120	      1.24603593	    -15.21916390	      4.85150190	      0.63990228	      6.82602643	     -5.75394076	      0.76274196	      4.06455081
      0.94550000	     -8.83694437	      1.66762598	     -0.79893262	     -0.12066263	      1.03011579	      0.30204333	     -0.87881019	     -0.40767259	     -0.58346541	    -16.22243615	     20.55039837	     -2.22796259	      5.65141156	     34.93880827	     -0.63259422	      1.32324692	    -15.26813093	      4.85506051	      0.53858207	      6.78510376	     -5.65903581	      0.80015010	      4.09095367
      0.94966667	     -8.82905783	      1.60484609	     -0.88437790	     -0.11456866	      1.02885882	      0.30159793	     -1.03796194	     -0.39459893	     -0.57466106	    -16.68848903	     20.72316666	     -2.09286373	      5.64866183	     34.94158221	     -0.64727711	      1.36703874	    -15.44023351	      4.87306794	      0.48050495	      6.76523955	     -5.59196375	      0.84481533	      4.10880571
      0.95383333	     -8.80538689	      1.58633877	     -0.97804573	     -0.10843241	      1.02768106	      0.30113572	     -1.17169490	     -0.44792821	     -0.65358031	    -17.24797197	     20.91627692	     -1.77543803	      5.65949063	     34.91160183	     -0.61841610	      1.39325541	    -15.66271959	      4.86598924	      0.44309484	      6.74023807	     -5.53339990	      0.84305836	      4.13308028
      0.95800000	     -8.80508361	      1.55326307	     -1.06081364	     -0.10229352	      1.02649063	      0.30064907	     -1.26073475	     -0.48734596	     -0.73116956	    -17.85057093	     21.03076865	     -1.47116510	      5.68863474	     34.91558616	     -0.59492689	      1.45077552	    -15.96958788	      4.85349747	      0.45578998	      6.71615972	     -5.45057679	      0.85362809	      4.14935126
      0.96216667	     -8.77269904	      1.53943828	     -1.14913180	     -0.09613354	      1.02541729	      0.30018273	     -1.36577058	     -0.55032006	     -0.78845117	    -18.49147916	     21.13852958	     -1.18734980	      5.73680644	     34.89004924	     -0.55642062	      1.47036727	    -16.35971887	      4.82985925	      0.47612704	      6.69800456	     -5.40301051	      0.83702121	      4.15363065
      0.96633333	     -8.77976976	      1.51005812	     -1.23078207	     -0.08996413	      1.02430343	      0.29969077	     -1.40148055	     -0.60081973	     -0.86214822	    -19.18967021	     21.19425887	     -0.89426723	      5.80705179	     34.92546874	     -0.52953089	      1.49496408	    -16.84814144	      4.80979350	      0.53069140	      6.68524176	     -5.29649122	      0.84443449	      4.15633887
      0.97050000	     -8.74469964	      1.50622617	     -1.31256440	     -0.08378598	      1.02332632	      0.29919162	     -1.45355016	     -0.68820757	     -0.95587086	    -19.94618999	     21.22425872	     -0.56102041	      5.91260843	     34.91472718	     -0.47799879	      1.50138410	    -17.39062038	      4.78150006	      0.61108982	      6.67595405	     -5.24799843	      0.81481817	      4.14663451
      0.97466667	     -8.72536980	      1.50213637	     -1.39120232	     -0.07759605	      1.02237456	      0.29868591	     -1.46028376	     -0.78040861	     -1.05658254	    -20.75993091	     21.20171446	     -0.23332254	      6.07302185	     34.93097092	     -0.42623180	      1.51351769	    -18.00462400	      4.75087470	      0.70252185	      6.67000160	     -5.16845538	      0.78715916	      4.13135301
      0.97883333	     -8.70424864	      1.48927597	     -1.46963344	     -0.07142231	      1.02147801	      0.29816370	     -1.44242563	     -0.86625408	     -1.13329340	    -21.62341652	     21.13680827	      0.10327604	      6.23457772	     34.96123354	     -0.38321076	      1.52493042	    -18.69427082	      4.74587130	      0.78361618	      6.66951883	     -5.10895285	      0.76628931	      4.10762470
      0.98300000	     -8.68121688	      1.48475661	     -1.54418942	     -0.06524113	      1.02064596	      0.29762464	     -1.39262340	     -0.96943785	     -1.23285251	    -22.55270539	     21.01159088	      0.45126455	      6.41656318	     34.99473207	     -0.33304036	      1.52558783	    -19.43033154	      4.74655149	      0.87220078	      6.67157247	     -5.04165393	      0.73061824	      4.07679412
      0.98716667	     -8.62169453	      1.49511413	     -1.60077416	     -0.05905691	      1.01993337	      0.29704291	     -1.35199842	     -1.10142787	     -1.38121080	    -23.53646872	     20.77323513	      0.75601236	      9.51656589	     34.99172965	     -0.25803326	      1.54352367	    -20.20033761	      4.76610443	      0.96855840	      6.65799226	     -5.02256434	      0.67225128	      4.04834014
      0.99133333	     -8.60454818	      1.49245156	     -1.68216477	     -0.05289082	      1.01922236	      0.29650245	     -1.22832965	     -1.21724526	     -1.46248675	    -24.58561236	     20.53426244	      1.10250134	      9.57223004	     35.04220861	     -0.21624357	      1.52940221	    -21.01553213	      4.78747901	      1.03887813	      6.66152583	     -4.95133673	      0.64653278	      3.99285439
      0.99550000	     -8.56617669	      1.49930020	     -1.74591616	     -0.04671604	      1.01860202	      0.29590953	     -1.09378088	     -1.35573377	     -1.59171745	    -25.70172447	     20.24277943	      1.47571867	      9.67821505	     35.07018081	     -0.15660884	      1.52058939	    -21.85228436	      4.85119002	      1.12545813	      6.66413405	     -4.90685424	      0.59569673	      3.93972018
      0.99966667	     -8.52791927	      1.51496247	     -1.80573828	     -0.04054593	      1.01804590	      0.29530868	     -0.91737912	     -1.51380592	     -1.74353987	    -26.89666659	     19.91130677	      1.85161955	      9.87163375	     35.09736067	     -0.09190895	      1.49296175	    -22.70224332	      4.92451341	      1.21746356	      6.66257174	     -4.85801521	      0.54864298	      3.88165438
      1.00383333	     -8.47984720	      1.53007580	     -1.86835732	     -0.03438818	      1.01758648	      0.29470694	     -0.72479157	     -1.67358978	     -1.86186868	    -28.12488323	     19.45013917	      2.23020127	     10.07354500	     35.10341357	     -0.02791257	      1.48767259	    -23.54865405	      5.05118720	      1.27252204	      6.65928145	     -4.83308000	      0.47756022	      3.81545026
      1.00800000	     -8.34954519	      1.57065343	     -1.91549401	     -0.02824270	      1.01732762	      0.29408376	     -0.58226340	     -1.88167658	     -2.05331199	    -29.41667190	     18.90003369	      2.56985338	     13.66339142	     35.01161811	      0.05996666	      1.41975157	    -24.37668078	      5.17008696	      1.41476214	      6.45734511	     -4.91725451	      0.38913365	      3.71783471
      1.01216667	     -8.34436077	      1.58359417	     -1.97656530	     -0.02211104	      1.01692524	      0.29347222	     -0.26429622	     -2.04631955	     -2.15215397	    -30.77685211	     18.29672092	      2.84664982	     13.72955785	     35.03615196	      0.12114083	      1.44111709	    -25.18690309	      5.34222871	      1.37662626	      6.45778330	     -4.82940135	      0.32944749	      3.67010621
      1.01633333	     -8.28562155	      1.62215193	     -2.01927368	     -0.01599105	      1.01665638	      0.29283089	      0.03748434	     -2.26110619	     -2.33592783	    -32.21405669	     17.70254961	      3.20688799	     13.89780509	     34.99525034	      0.20475383	      1.38381592	    -25.97830866	      5.51246342	      1.44417978	      6.44987843	     -4.80813440	      0.25313351	      3.59380518
      1.02050000	     -8.21884056	      1.66904000	     -2.06224349	     -0.00989388	      1.01648653	      0.29220012	      0.36468740	     -2.48822159	     -2.50033508	    -33.69335777	     17.00092069	      3.53620503	     14.14825310	     34.91622588	      0.29634008	      1.33698768	    -26.71383594	      5.71593325	      1.50478310	      6.43372726	     -4.80390530	      0.15833906	      3.50615282
      1.02466667	     -8.11757161	      1.71390802	     -2.10100525	     -0.00382680	      1.01645219	      0.29159558	      0.68141238	     -2.71277581	     -2.64285820	    -35.19206830	     16.11922740	      3.71449234	     17.97432655	     34.77625806	      0.38600838	      1.28913201	    -27.40466393	      5.97764587	      1.56704620	      6.05926550	     -4.86000207	      0.05139096	      3.39042055
